External Loads File
version=1
nRows=62
nColumns=13
Range=5.000000e-03-10 seconds
endheader
time 	forceRightX 	forceRightY 	forceRightZ 	pointRightX 	pointRightY 	pointRightZ 	forceLeftX 	forceLeftY 	forceLeftZ 	pointLeftX 	pointLeftY 	pointLeftZ 		
5.005000 -51.002735 -30.714485 -0.000000 0.225616 0.489735 -0.151869 189.627445 887.129126 -0.000000 0.314821 0.165261 -0.379099
5.010000 -54.381226 -18.936089 -0.000000 0.234294 0.494854 -0.152335 203.366082 839.915020 -0.000000 0.305941 0.161349 -0.378960
5.015000 -57.237124 -4.440705 -0.000000 0.243207 0.499136 -0.153033 213.613010 790.297505 -0.000000 0.296769 0.158136 -0.378855
5.020000 -59.455837 12.560405 -0.000000 0.252083 0.502647 -0.153326 220.733284 740.151852 -0.000000 0.287400 0.155593 -0.378811
5.025000 -60.933983 31.803677 -0.000000 0.261160 0.505446 -0.153513 226.210269 690.767648 -0.000000 0.277919 0.153684 -0.378846
5.030000 -61.489252 52.901574 -0.000000 0.270276 0.507435 -0.153617 231.454670 643.064126 -0.000000 0.267886 0.152512 -0.379488
5.035000 -61.151792 75.067221 -0.000000 0.279287 0.508475 -0.153572 235.299961 598.487497 -0.000000 0.258301 0.151976 -0.379378
5.040000 -59.852455 97.659459 -0.000000 0.288324 0.508972 -0.153330 239.487612 557.107609 -0.000000 0.248780 0.152176 -0.379297
5.045000 -57.861096 119.884745 -0.000000 0.296876 0.508186 -0.152910 243.980105 519.396300 -0.000000 0.239393 0.153149 -0.379131
5.050000 -55.507314 141.305638 -0.000000 0.305063 0.506863 -0.152231 249.483710 485.162172 -0.000000 0.230185 0.154871 -0.378888
5.055000 -53.241041 161.921395 -0.000000 0.312835 0.504764 -0.151445 256.120449 453.688336 -0.000000 0.221215 0.157299 -0.378661
5.060000 -51.377975 182.198924 -0.000000 0.320383 0.501989 -0.151047 263.654482 423.341564 -0.000000 0.212450 0.160460 -0.378363
5.065000 -50.088019 202.874927 -0.000000 0.327646 0.498236 -0.150536 271.118214 391.909029 -0.000000 0.203538 0.164271 -0.378401
5.070000 -50.376769 224.578768 -0.000000 0.334501 0.493910 -0.149892 275.296091 358.288280 -0.000000 0.195493 0.168750 -0.377849
5.075000 -52.131618 248.197164 -0.000000 0.341108 0.488767 -0.149203 274.879319 320.328969 -0.000000 0.187691 0.173750 -0.377453
5.080000 -55.541120 274.369179 -0.000000 0.347394 0.482971 -0.148552 267.714779 277.304983 -0.000000 0.179981 0.179251 -0.377156
5.085000 -60.646220 303.475919 -0.000000 0.353363 0.476453 -0.148175 252.319521 229.740318 -0.000000 0.172453 0.185390 -0.376920
5.090000 -67.390757 335.522164 -0.000000 0.359306 0.469253 -0.147450 228.632114 179.861496 -0.000000 0.165188 0.191836 -0.376646
5.095000 -75.721239 370.082410 -0.000000 0.364904 0.461411 -0.146728 198.683236 131.496387 -0.000000 0.158153 0.198786 -0.376487
5.100000 -84.975397 406.473293 -0.000000 0.370633 0.453094 -0.146818 166.351821 88.455073 -0.000000 0.151436 0.206274 -0.376402
5.105000 -95.548265 443.529944 -0.000000 0.375883 0.444362 -0.147047 135.250272 53.627744 -0.000000 0.145116 0.214080 -0.376225
5.110000 -105.931057 480.447394 -0.000000 0.380915 0.435103 -0.147157 108.138705 27.212781 -0.000000 0.139222 0.222840 -0.375894
5.115000 -117.255110 516.054924 -0.000000 0.385564 0.425656 -0.147348 86.146396 8.797679 -0.000000 0.133808 0.231585 -0.375956
5.120000 -128.579865 550.002098 -0.000000 0.389784 0.415712 -0.147526 69.617280 -3.223901 -0.000000 0.128920 0.240649 -0.375952
5.125000 -139.680280 582.215721 -0.000000 0.393775 0.405421 -0.147668 58.150214 -10.374308 -0.000000 0.124647 0.250045 -0.375963
5.130000 -150.953494 612.830518 -0.000000 0.397378 0.394997 -0.147744 50.986465 -13.959395 -0.000000 0.120959 0.259666 -0.376015
5.135000 -161.901778 642.352701 -0.000000 0.400470 0.384308 -0.147749 47.242333 -15.053276 -0.000000 0.117908 0.269528 -0.376055
5.140000 -171.546256 671.368618 -0.000000 0.403378 0.373447 -0.148013 46.068173 -14.395727 -0.000000 0.115401 0.279697 -0.376026
5.145000 -179.223039 700.213912 -0.000000 0.405419 0.362139 -0.147419 46.742638 -12.427693 -0.000000 0.113700 0.290091 -0.376195
5.150000 -184.624047 728.896827 -0.000000 0.407292 0.350854 -0.147256 48.698469 -9.436608 -0.000000 0.112511 0.300585 -0.376142
5.155000 -187.196785 757.275098 -0.000000 0.408592 0.339568 -0.147029 51.454575 -5.762157 -0.000000 0.112098 0.311198 -0.376208
5.160000 -186.592566 785.040415 -0.000000 0.409403 0.328269 -0.146799 54.514288 -1.872875 -0.000000 0.112314 0.321749 -0.376194
5.165000 -182.832679 811.794006 -0.000000 0.409609 0.317209 -0.146585 57.343836 1.716844 -0.000000 0.113204 0.332348 -0.376159
5.170000 -175.510101 837.313622 -0.000000 0.409338 0.306185 -0.146255 59.464380 4.570092 -0.000000 0.114712 0.342916 -0.376113
5.175000 -163.747883 861.553776 -0.000000 0.408403 0.295351 -0.146292 60.539062 6.409695 -0.000000 0.116826 0.353936 -0.376154
5.180000 -150.611973 883.811268 -0.000000 0.407114 0.284584 -0.146008 60.348035 7.380785 -0.000000 0.119543 0.364384 -0.376180
5.185000 -135.937449 904.158858 -0.000000 0.405046 0.273974 -0.146015 58.815862 7.478949 -0.000000 0.122786 0.374431 -0.376221
5.190000 -119.597190 922.666374 -0.000000 0.402461 0.263602 -0.146223 55.977301 6.784746 -0.000000 0.126031 0.384588 -0.375576
5.195000 -100.123550 939.520026 -0.000000 0.399214 0.253556 -0.146114 51.986540 5.374087 -0.000000 0.130917 0.394663 -0.376483
5.200000 -79.845456 954.405820 -0.000000 0.395353 0.243723 -0.145878 47.074367 3.564168 -0.000000 0.135925 0.404415 -0.376242
5.205000 -59.404956 967.241434 -0.000000 0.391002 0.234126 -0.145680 41.557187 1.530189 -0.000000 0.140903 0.413868 -0.375816
5.210000 -36.903121 977.969812 -0.000000 0.386078 0.224868 -0.145529 35.768404 -0.720040 -0.000000 0.146797 0.423116 -0.375832
5.215000 -13.712236 986.162597 -0.000000 0.380702 0.215961 -0.145393 29.971598 -3.142228 -0.000000 0.153117 0.432059 -0.375787
5.220000 10.158086 991.404247 -0.000000 0.374742 0.207634 -0.145176 24.316172 -5.878346 -0.000000 0.159919 0.440726 -0.376046
5.225000 35.434490 993.213385 -0.000000 0.368423 0.199570 -0.145017 18.802639 -9.174099 -0.000000 0.167392 0.449245 -0.375381
5.230000 60.911980 991.148404 -0.000000 0.361726 0.191945 -0.144927 13.259347 -13.250244 -0.000000 0.175413 0.457386 -0.375564
5.235000 79.851581 985.362209 -0.000000 0.354674 0.185064 -0.144833 7.432850 -18.204470 -0.000000 0.181803 0.464901 -0.375305
5.240000 103.409120 974.732114 -0.000000 0.347276 0.178340 -0.144652 0.694729 -24.122185 -0.000000 0.190233 0.472434 -0.375482
5.245000 122.599837 959.693590 -0.000000 0.339599 0.172598 -0.144430 -7.145457 -30.656825 -0.000000 0.198451 0.478639 -0.375288
5.250000 141.170392 939.577749 -0.000000 0.331657 0.167324 -0.144242 -16.256733 -37.207486 -0.000000 0.207075 0.484568 -0.375315
5.255000 157.582403 914.297234 -0.000000 0.323560 0.162675 -0.144012 -26.244266 -42.861978 -0.000000 0.215819 0.489967 -0.375331
5.260000 172.821830 883.450443 -0.000000 0.315202 0.158709 -0.143681 -36.444255 -46.563156 -0.000000 0.225017 0.494719 -0.374894
5.265000 184.950186 847.280815 -0.000000 0.306743 0.155361 -0.143466 -45.983820 -47.524544 -0.000000 0.233983 0.498896 -0.374992
5.270000 195.120323 805.606170 -0.000000 0.298008 0.152675 -0.142904 -54.326669 -45.184430 -0.000000 0.243058 0.502282 -0.375063
5.275000 203.319958 758.604892 -0.000000 0.289439 0.150702 -0.142730 -61.106396 -39.395461 -0.000000 0.252716 0.504932 -0.375130
5.280000 207.080842 707.336631 -0.000000 0.280865 0.149339 -0.142613 -66.027071 -30.561165 -0.000000 0.261563 0.507006 -0.375456
5.285000 209.016936 651.663015 -0.000000 0.272270 0.148732 -0.142540 -69.206108 -18.898631 -0.000000 0.270856 0.508232 -0.375862
5.290000 207.489323 592.826268 -0.000000 0.263785 0.148838 -0.142498 -70.729790 -5.158099 -0.000000 0.279811 0.508935 -0.376410
5.295000 203.000911 531.648725 -0.000000 0.255365 0.149635 -0.142539 -70.966124 10.059641 -0.000000 0.288512 0.508900 -0.376704
5.300000 196.087078 469.111082 -0.000000 0.247049 0.151217 -0.142659 -70.395338 26.298923 -0.000000 0.297071 0.507668 -0.377351
5.305000 186.346144 406.797098 -0.000000 0.238941 0.153460 -0.142792 -69.658972 43.215369 -0.000000 0.305058 0.505974 -0.377839
5.310000 174.963577 345.802058 -0.000000 0.230956 0.156465 -0.142968 -69.417845 61.043087 -0.000000 0.312755 0.503179 -0.378365
